<mxfile host="app.diagrams.net" modified="2020-12-18T03:37:35.891Z" agent="5.0 (Windows NT 10.0; Win64; x64) AppleWebKit/537.36 (KHTML, like Gecko) Chrome/84.0.4147.105 Safari/537.36" etag="ugy4tvjM8Y82PXdF1jgC" version="14.0.1" type="github" pages="3">
  <diagram id="DybgV2dMm-oK95CopPqm" name="标书画图">
    <mxGraphModel dx="3332" dy="2728" grid="0" gridSize="10" guides="1" tooltips="1" connect="1" arrows="1" fold="1" page="0" pageScale="1" pageWidth="827" pageHeight="1169" math="0" shadow="0">
      <root>
        <mxCell id="0" />
        <mxCell id="1" parent="0" />
        <mxCell id="zKL8gyBiCPiRNHRH7Rql-82" value="支付结果不明确" style="shape=umlFrame;whiteSpace=wrap;html=1;" parent="1" vertex="1">
          <mxGeometry x="1373" y="-175" width="632" height="106" as="geometry" />
        </mxCell>
        <mxCell id="zKL8gyBiCPiRNHRH7Rql-27" value="没有收到前端通知" style="shape=umlFrame;whiteSpace=wrap;html=1;" parent="1" vertex="1">
          <mxGeometry x="-1166" y="18" width="749" height="130" as="geometry" />
        </mxCell>
        <mxCell id="xwB1ckmhTEfTMpIk9fc6-267" value="" style="rounded=0;whiteSpace=wrap;html=1;strokeColor=#000000;fillColor=none;" parent="1" vertex="1">
          <mxGeometry x="-949" y="-1501" width="536" height="409" as="geometry" />
        </mxCell>
        <mxCell id="T4yJkQ8KHL0_IrTnyPtb-2" value="" style="rounded=0;whiteSpace=wrap;html=1;verticalAlign=top;strokeColor=#CCCCCC;" parent="1" vertex="1">
          <mxGeometry x="-942" y="-1263" width="520" height="132" as="geometry" />
        </mxCell>
        <mxCell id="T4yJkQ8KHL0_IrTnyPtb-3" value="网页支付" style="text;html=1;strokeColor=none;fillColor=none;align=center;verticalAlign=middle;whiteSpace=wrap;rounded=0;" parent="1" vertex="1">
          <mxGeometry x="-930" y="-1252" width="69" height="19" as="geometry" />
        </mxCell>
        <mxCell id="xwB1ckmhTEfTMpIk9fc6-2" value="扫码支付" style="text;html=1;strokeColor=none;fillColor=none;align=center;verticalAlign=middle;whiteSpace=wrap;rounded=0;" parent="1" vertex="1">
          <mxGeometry x="-784" y="-1252" width="69" height="19" as="geometry" />
        </mxCell>
        <mxCell id="xwB1ckmhTEfTMpIk9fc6-3" value="小程序支付" style="text;html=1;strokeColor=none;fillColor=none;align=center;verticalAlign=middle;whiteSpace=wrap;rounded=0;" parent="1" vertex="1">
          <mxGeometry x="-638" y="-1252" width="69" height="19" as="geometry" />
        </mxCell>
        <mxCell id="xwB1ckmhTEfTMpIk9fc6-6" value="wap收银台" style="text;html=1;strokeColor=none;fillColor=none;align=center;verticalAlign=middle;whiteSpace=wrap;rounded=0;" parent="1" vertex="1">
          <mxGeometry x="-784" y="-1188" width="69" height="19" as="geometry" />
        </mxCell>
        <mxCell id="xwB1ckmhTEfTMpIk9fc6-7" value="支付渠道管理" style="text;html=1;strokeColor=none;fillColor=none;align=center;verticalAlign=middle;whiteSpace=wrap;rounded=0;" parent="1" vertex="1">
          <mxGeometry x="-643" y="-1188" width="79" height="23" as="geometry" />
        </mxCell>
        <mxCell id="xwB1ckmhTEfTMpIk9fc6-8" value="对账系统" style="text;html=1;strokeColor=none;fillColor=none;align=center;verticalAlign=middle;whiteSpace=wrap;rounded=0;" parent="1" vertex="1">
          <mxGeometry x="-503.5" y="-1158" width="79" height="19" as="geometry" />
        </mxCell>
        <mxCell id="xwB1ckmhTEfTMpIk9fc6-9" value="交易补发服务" style="text;html=1;strokeColor=none;fillColor=none;align=center;verticalAlign=middle;whiteSpace=wrap;rounded=0;" parent="1" vertex="1">
          <mxGeometry x="-501" y="-1220" width="79" height="19" as="geometry" />
        </mxCell>
        <mxCell id="xwB1ckmhTEfTMpIk9fc6-10" value="商户管理" style="text;html=1;strokeColor=none;fillColor=none;align=center;verticalAlign=middle;whiteSpace=wrap;rounded=0;" parent="1" vertex="1">
          <mxGeometry x="-931.5" y="-1156" width="79" height="19" as="geometry" />
        </mxCell>
        <mxCell id="xwB1ckmhTEfTMpIk9fc6-44" value="退款" style="text;html=1;strokeColor=none;fillColor=none;align=center;verticalAlign=middle;whiteSpace=wrap;rounded=0;" parent="1" vertex="1">
          <mxGeometry x="-789" y="-1220" width="79" height="19" as="geometry" />
        </mxCell>
        <mxCell id="xwB1ckmhTEfTMpIk9fc6-97" style="edgeStyle=orthogonalEdgeStyle;rounded=0;orthogonalLoop=1;jettySize=auto;html=1;exitX=0.5;exitY=1;exitDx=0;exitDy=0;" parent="1" source="xwB1ckmhTEfTMpIk9fc6-2" target="xwB1ckmhTEfTMpIk9fc6-2" edge="1">
          <mxGeometry relative="1" as="geometry" />
        </mxCell>
        <mxCell id="xwB1ckmhTEfTMpIk9fc6-98" value="支付路由管理" style="text;html=1;strokeColor=none;fillColor=none;align=center;verticalAlign=middle;whiteSpace=wrap;rounded=0;" parent="1" vertex="1">
          <mxGeometry x="-503.5" y="-1188" width="79" height="19" as="geometry" />
        </mxCell>
        <mxCell id="xwB1ckmhTEfTMpIk9fc6-111" value="交易查询" style="text;html=1;strokeColor=none;fillColor=none;align=center;verticalAlign=middle;whiteSpace=wrap;rounded=0;" parent="1" vertex="1">
          <mxGeometry x="-935" y="-1220" width="79" height="19" as="geometry" />
        </mxCell>
        <mxCell id="xwB1ckmhTEfTMpIk9fc6-128" value="" style="rounded=0;whiteSpace=wrap;html=1;verticalAlign=top;strokeColor=#CCCCCC;" parent="1" vertex="1">
          <mxGeometry x="-585" y="-1390" width="163" height="93" as="geometry" />
        </mxCell>
        <mxCell id="xwB1ckmhTEfTMpIk9fc6-129" value="在线开票" style="text;html=1;strokeColor=none;fillColor=none;align=center;verticalAlign=middle;whiteSpace=wrap;rounded=0;" parent="1" vertex="1">
          <mxGeometry x="-491" y="-1342" width="69" height="19" as="geometry" />
        </mxCell>
        <mxCell id="xwB1ckmhTEfTMpIk9fc6-133" value="项目管理" style="text;html=1;strokeColor=none;fillColor=none;align=center;verticalAlign=middle;whiteSpace=wrap;rounded=0;" parent="1" vertex="1">
          <mxGeometry x="-585.5" y="-1342" width="69" height="19" as="geometry" />
        </mxCell>
        <mxCell id="xwB1ckmhTEfTMpIk9fc6-135" value="缴费退款" style="text;html=1;strokeColor=none;fillColor=none;align=center;verticalAlign=middle;whiteSpace=wrap;rounded=0;" parent="1" vertex="1">
          <mxGeometry x="-585.5" y="-1364" width="69" height="19" as="geometry" />
        </mxCell>
        <mxCell id="xwB1ckmhTEfTMpIk9fc6-137" value="名单缴费" style="text;html=1;strokeColor=none;fillColor=none;align=center;verticalAlign=middle;whiteSpace=wrap;rounded=0;" parent="1" vertex="1">
          <mxGeometry x="-584" y="-1386" width="69" height="19" as="geometry" />
        </mxCell>
        <mxCell id="xwB1ckmhTEfTMpIk9fc6-140" value="票据打印" style="text;html=1;strokeColor=none;fillColor=none;align=center;verticalAlign=middle;whiteSpace=wrap;rounded=0;" parent="1" vertex="1">
          <mxGeometry x="-585.5" y="-1318" width="69" height="19" as="geometry" />
        </mxCell>
        <mxCell id="xwB1ckmhTEfTMpIk9fc6-141" style="edgeStyle=orthogonalEdgeStyle;rounded=0;orthogonalLoop=1;jettySize=auto;html=1;exitX=0.5;exitY=1;exitDx=0;exitDy=0;" parent="1" edge="1">
          <mxGeometry relative="1" as="geometry">
            <mxPoint x="-317.5" y="280" as="sourcePoint" />
            <mxPoint x="-317.5" y="280" as="targetPoint" />
          </mxGeometry>
        </mxCell>
        <mxCell id="xwB1ckmhTEfTMpIk9fc6-142" value="缴费报表" style="text;html=1;strokeColor=none;fillColor=none;align=center;verticalAlign=middle;whiteSpace=wrap;rounded=0;" parent="1" vertex="1">
          <mxGeometry x="-491" y="-1364" width="69" height="19" as="geometry" />
        </mxCell>
        <mxCell id="xwB1ckmhTEfTMpIk9fc6-161" value="数据报表管理" style="text;html=1;strokeColor=none;fillColor=none;align=center;verticalAlign=middle;whiteSpace=wrap;rounded=0;" parent="1" vertex="1">
          <mxGeometry x="-789" y="-1156" width="79" height="19" as="geometry" />
        </mxCell>
        <mxCell id="xwB1ckmhTEfTMpIk9fc6-167" value="支付参数管理" style="text;html=1;strokeColor=none;fillColor=none;align=center;verticalAlign=middle;whiteSpace=wrap;rounded=0;" parent="1" vertex="1">
          <mxGeometry x="-935" y="-1188" width="79" height="19" as="geometry" />
        </mxCell>
        <mxCell id="xwB1ckmhTEfTMpIk9fc6-178" value="综合缴费系统" style="rounded=0;whiteSpace=wrap;html=1;fontStyle=1;fillColor=none;strokeColor=#CCCCCC;" parent="1" vertex="1">
          <mxGeometry x="-585" y="-1416" width="163" height="26" as="geometry" />
        </mxCell>
        <mxCell id="xwB1ckmhTEfTMpIk9fc6-181" value="报名缴费" style="text;html=1;strokeColor=none;fillColor=none;align=center;verticalAlign=middle;whiteSpace=wrap;rounded=0;" parent="1" vertex="1">
          <mxGeometry x="-491" y="-1386" width="69" height="19" as="geometry" />
        </mxCell>
        <mxCell id="xwB1ckmhTEfTMpIk9fc6-188" value="" style="rounded=0;whiteSpace=wrap;html=1;verticalAlign=top;strokeColor=#CCCCCC;" parent="1" vertex="1">
          <mxGeometry x="-763.5" y="-1390" width="163" height="93" as="geometry" />
        </mxCell>
        <mxCell id="xwB1ckmhTEfTMpIk9fc6-191" value="三方码核身" style="text;html=1;strokeColor=none;fillColor=none;align=center;verticalAlign=middle;whiteSpace=wrap;rounded=0;" parent="1" vertex="1">
          <mxGeometry x="-716.5" y="-1341" width="69" height="19" as="geometry" />
        </mxCell>
        <mxCell id="xwB1ckmhTEfTMpIk9fc6-192" value="二维码分类" style="text;html=1;strokeColor=none;fillColor=none;align=center;verticalAlign=middle;whiteSpace=wrap;rounded=0;" parent="1" vertex="1">
          <mxGeometry x="-718.5" y="-1386" width="69" height="19" as="geometry" />
        </mxCell>
        <mxCell id="xwB1ckmhTEfTMpIk9fc6-194" value="交易结果通知" style="text;html=1;strokeColor=none;fillColor=none;align=center;verticalAlign=middle;whiteSpace=wrap;rounded=0;" parent="1" vertex="1">
          <mxGeometry x="-722" y="-1318" width="80" height="19" as="geometry" />
        </mxCell>
        <mxCell id="xwB1ckmhTEfTMpIk9fc6-195" value="扫码付系统" style="rounded=0;whiteSpace=wrap;html=1;fontStyle=1;fillColor=none;strokeColor=#CCCCCC;" parent="1" vertex="1">
          <mxGeometry x="-763.5" y="-1416" width="163" height="26" as="geometry" />
        </mxCell>
        <mxCell id="xwB1ckmhTEfTMpIk9fc6-196" value="虚拟卡认证" style="text;html=1;strokeColor=none;fillColor=none;align=center;verticalAlign=middle;whiteSpace=wrap;rounded=0;" parent="1" vertex="1">
          <mxGeometry x="-718.5" y="-1364" width="69" height="19" as="geometry" />
        </mxCell>
        <mxCell id="xwB1ckmhTEfTMpIk9fc6-200" value="" style="rounded=0;whiteSpace=wrap;html=1;verticalAlign=top;strokeColor=#CCCCCC;" parent="1" vertex="1">
          <mxGeometry x="-942" y="-1390" width="163" height="93" as="geometry" />
        </mxCell>
        <mxCell id="xwB1ckmhTEfTMpIk9fc6-201" value="身份认证" style="text;html=1;strokeColor=none;fillColor=none;align=center;verticalAlign=middle;whiteSpace=wrap;rounded=0;" parent="1" vertex="1">
          <mxGeometry x="-895" y="-1341" width="69" height="19" as="geometry" />
        </mxCell>
        <mxCell id="xwB1ckmhTEfTMpIk9fc6-202" value="设备管理" style="text;html=1;strokeColor=none;fillColor=none;align=center;verticalAlign=middle;whiteSpace=wrap;rounded=0;" parent="1" vertex="1">
          <mxGeometry x="-897" y="-1386" width="69" height="19" as="geometry" />
        </mxCell>
        <mxCell id="xwB1ckmhTEfTMpIk9fc6-203" value="交易数据上传" style="text;html=1;strokeColor=none;fillColor=none;align=center;verticalAlign=middle;whiteSpace=wrap;rounded=0;" parent="1" vertex="1">
          <mxGeometry x="-900.5" y="-1318" width="80" height="19" as="geometry" />
        </mxCell>
        <mxCell id="xwB1ckmhTEfTMpIk9fc6-204" value="联机交易系统" style="rounded=0;whiteSpace=wrap;html=1;fontStyle=1;fillColor=none;strokeColor=#CCCCCC;" parent="1" vertex="1">
          <mxGeometry x="-942" y="-1416" width="163" height="26" as="geometry" />
        </mxCell>
        <mxCell id="xwB1ckmhTEfTMpIk9fc6-205" value="黑名单下发" style="text;html=1;strokeColor=none;fillColor=none;align=center;verticalAlign=middle;whiteSpace=wrap;rounded=0;" parent="1" vertex="1">
          <mxGeometry x="-897" y="-1364" width="69" height="19" as="geometry" />
        </mxCell>
        <mxCell id="xwB1ckmhTEfTMpIk9fc6-220" value="金融聚合交易支付系统" style="rounded=0;whiteSpace=wrap;html=1;fontStyle=1;fillColor=none;strokeColor=#CCCCCC;" parent="1" vertex="1">
          <mxGeometry x="-942" y="-1289" width="520" height="26" as="geometry" />
        </mxCell>
        <mxCell id="xwB1ckmhTEfTMpIk9fc6-221" value="签约代扣支付" style="text;html=1;strokeColor=none;fillColor=none;align=center;verticalAlign=middle;whiteSpace=wrap;rounded=0;" parent="1" vertex="1">
          <mxGeometry x="-502" y="-1252" width="77.5" height="19" as="geometry" />
        </mxCell>
        <mxCell id="xwB1ckmhTEfTMpIk9fc6-227" style="edgeStyle=orthogonalEdgeStyle;rounded=0;orthogonalLoop=1;jettySize=auto;html=1;exitX=0.5;exitY=1;exitDx=0;exitDy=0;" parent="1" edge="1">
          <mxGeometry relative="1" as="geometry">
            <mxPoint x="-895.5" y="-1201" as="sourcePoint" />
            <mxPoint x="-895.5" y="-1201" as="targetPoint" />
          </mxGeometry>
        </mxCell>
        <mxCell id="xwB1ckmhTEfTMpIk9fc6-232" value="银联综合支付平台" style="rounded=0;whiteSpace=wrap;html=1;fontStyle=1;strokeColor=#CCCCCC;fillColor=none;" parent="1" vertex="1">
          <mxGeometry x="-942" y="-1123" width="163" height="26" as="geometry" />
        </mxCell>
        <mxCell id="xwB1ckmhTEfTMpIk9fc6-238" value="其他三方支付系统" style="rounded=0;whiteSpace=wrap;html=1;fontStyle=1;strokeColor=#CCCCCC;fillColor=none;" parent="1" vertex="1">
          <mxGeometry x="-763.5" y="-1123" width="163" height="26" as="geometry" />
        </mxCell>
        <mxCell id="xwB1ckmhTEfTMpIk9fc6-244" value="银联清结算平台" style="rounded=0;whiteSpace=wrap;html=1;fontStyle=1;strokeColor=#CCCCCC;fillColor=none;" parent="1" vertex="1">
          <mxGeometry x="-585" y="-1123" width="163" height="26" as="geometry" />
        </mxCell>
        <mxCell id="xwB1ckmhTEfTMpIk9fc6-246" value="" style="rounded=0;whiteSpace=wrap;html=1;verticalAlign=top;strokeColor=#CCCCCC;" parent="1" vertex="1">
          <mxGeometry x="-942" y="-1468" width="253" height="45" as="geometry" />
        </mxCell>
        <mxCell id="xwB1ckmhTEfTMpIk9fc6-247" value="" style="rounded=0;whiteSpace=wrap;html=1;verticalAlign=top;strokeColor=#CCCCCC;" parent="1" vertex="1">
          <mxGeometry x="-674" y="-1469" width="252" height="47" as="geometry" />
        </mxCell>
        <mxCell id="xwB1ckmhTEfTMpIk9fc6-249" value="认证授权" style="text;html=1;strokeColor=none;fillColor=none;align=center;verticalAlign=middle;whiteSpace=wrap;rounded=0;" parent="1" vertex="1">
          <mxGeometry x="-935" y="-1455" width="69" height="19" as="geometry" />
        </mxCell>
        <mxCell id="xwB1ckmhTEfTMpIk9fc6-250" value="应用管理" style="text;html=1;fillColor=none;align=center;verticalAlign=middle;whiteSpace=wrap;rounded=0;" parent="1" vertex="1">
          <mxGeometry x="-848" y="-1455" width="69" height="19" as="geometry" />
        </mxCell>
        <mxCell id="xwB1ckmhTEfTMpIk9fc6-251" value="接口管理" style="text;html=1;strokeColor=none;fillColor=none;align=center;verticalAlign=middle;whiteSpace=wrap;rounded=0;" parent="1" vertex="1">
          <mxGeometry x="-758" y="-1455" width="69" height="19" as="geometry" />
        </mxCell>
        <mxCell id="xwB1ckmhTEfTMpIk9fc6-252" value="商户报表" style="text;html=1;strokeColor=none;fillColor=none;align=center;verticalAlign=middle;whiteSpace=wrap;rounded=0;" parent="1" vertex="1">
          <mxGeometry x="-491" y="-1444" width="69" height="19" as="geometry" />
        </mxCell>
        <mxCell id="xwB1ckmhTEfTMpIk9fc6-253" value="个人中心" style="text;html=1;strokeColor=none;fillColor=none;align=center;verticalAlign=middle;whiteSpace=wrap;rounded=0;" parent="1" vertex="1">
          <mxGeometry x="-491" y="-1466" width="69" height="19" as="geometry" />
        </mxCell>
        <mxCell id="xwB1ckmhTEfTMpIk9fc6-254" value="系统管理" style="text;html=1;strokeColor=none;fillColor=none;align=center;verticalAlign=middle;whiteSpace=wrap;rounded=0;" parent="1" vertex="1">
          <mxGeometry x="-582.5" y="-1444" width="69" height="19" as="geometry" />
        </mxCell>
        <mxCell id="xwB1ckmhTEfTMpIk9fc6-255" value="运营管理" style="text;html=1;strokeColor=none;fillColor=none;align=center;verticalAlign=middle;whiteSpace=wrap;rounded=0;" parent="1" vertex="1">
          <mxGeometry x="-674" y="-1444" width="69" height="19" as="geometry" />
        </mxCell>
        <mxCell id="xwB1ckmhTEfTMpIk9fc6-256" value="交易流水" style="text;html=1;strokeColor=none;fillColor=none;align=center;verticalAlign=middle;whiteSpace=wrap;rounded=0;" parent="1" vertex="1">
          <mxGeometry x="-582.5" y="-1466" width="69" height="19" as="geometry" />
        </mxCell>
        <mxCell id="xwB1ckmhTEfTMpIk9fc6-258" value="账单管理" style="text;html=1;strokeColor=none;fillColor=none;align=center;verticalAlign=middle;whiteSpace=wrap;rounded=0;" parent="1" vertex="1">
          <mxGeometry x="-674" y="-1466" width="69" height="19" as="geometry" />
        </mxCell>
        <mxCell id="xwB1ckmhTEfTMpIk9fc6-259" value="开放平台" style="rounded=0;whiteSpace=wrap;html=1;fontStyle=1;fillColor=none;strokeColor=#CCCCCC;" parent="1" vertex="1">
          <mxGeometry x="-942" y="-1495" width="253" height="26" as="geometry" />
        </mxCell>
        <mxCell id="xwB1ckmhTEfTMpIk9fc6-260" value="移动服务平台" style="rounded=0;whiteSpace=wrap;html=1;fontStyle=1;fillColor=none;strokeColor=#CCCCCC;" parent="1" vertex="1">
          <mxGeometry x="-674" y="-1495" width="252" height="26" as="geometry" />
        </mxCell>
        <mxCell id="xwB1ckmhTEfTMpIk9fc6-265" value="补账服务" style="text;html=1;strokeColor=none;fillColor=none;align=center;verticalAlign=middle;whiteSpace=wrap;rounded=0;" parent="1" vertex="1">
          <mxGeometry x="-643" y="-1220" width="79" height="19" as="geometry" />
        </mxCell>
        <mxCell id="xwB1ckmhTEfTMpIk9fc6-266" value="异步通知系统" style="text;html=1;strokeColor=none;fillColor=none;align=center;verticalAlign=middle;whiteSpace=wrap;rounded=0;" parent="1" vertex="1">
          <mxGeometry x="-643" y="-1158" width="79" height="19" as="geometry" />
        </mxCell>
        <mxCell id="zKL8gyBiCPiRNHRH7Rql-1" value="用户" style="shape=umlLifeline;perimeter=lifelinePerimeter;whiteSpace=wrap;html=1;container=1;collapsible=0;recursiveResize=0;outlineConnect=0;" parent="1" vertex="1">
          <mxGeometry x="-1192" y="-542" width="100" height="872" as="geometry" />
        </mxCell>
        <mxCell id="zKL8gyBiCPiRNHRH7Rql-2" value="综合缴费平台" style="shape=umlLifeline;perimeter=lifelinePerimeter;whiteSpace=wrap;html=1;container=1;collapsible=0;recursiveResize=0;outlineConnect=0;" parent="1" vertex="1">
          <mxGeometry x="-1017" y="-542" width="100" height="848" as="geometry" />
        </mxCell>
        <mxCell id="zKL8gyBiCPiRNHRH7Rql-3" value="wap收银台" style="shape=umlLifeline;perimeter=lifelinePerimeter;whiteSpace=wrap;html=1;container=1;collapsible=0;recursiveResize=0;outlineConnect=0;" parent="1" vertex="1">
          <mxGeometry x="-841" y="-542" width="100" height="878" as="geometry" />
        </mxCell>
        <mxCell id="zKL8gyBiCPiRNHRH7Rql-4" value="金融交易支付系统" style="shape=umlLifeline;perimeter=lifelinePerimeter;whiteSpace=wrap;html=1;container=1;collapsible=0;recursiveResize=0;outlineConnect=0;" parent="1" vertex="1">
          <mxGeometry x="-668" y="-542" width="100" height="828" as="geometry" />
        </mxCell>
        <mxCell id="zKL8gyBiCPiRNHRH7Rql-6" value="查询账单" style="endArrow=classic;html=1;" parent="1" edge="1">
          <mxGeometry width="50" height="50" relative="1" as="geometry">
            <mxPoint x="-1141.3333333333335" y="-425" as="sourcePoint" />
            <mxPoint x="-966.5" y="-425" as="targetPoint" />
            <Array as="points">
              <mxPoint x="-1054" y="-425" />
            </Array>
          </mxGeometry>
        </mxCell>
        <mxCell id="zKL8gyBiCPiRNHRH7Rql-7" value="返回账单" style="endArrow=classic;html=1;dashed=1;" parent="1" edge="1">
          <mxGeometry width="50" height="50" relative="1" as="geometry">
            <mxPoint x="-967.5" y="-404" as="sourcePoint" />
            <mxPoint x="-1142.5" y="-404" as="targetPoint" />
            <Array as="points">
              <mxPoint x="-1044" y="-404" />
            </Array>
          </mxGeometry>
        </mxCell>
        <mxCell id="zKL8gyBiCPiRNHRH7Rql-8" value="下单" style="endArrow=classic;html=1;" parent="1" edge="1">
          <mxGeometry width="50" height="50" relative="1" as="geometry">
            <mxPoint x="-1140.0033333333336" y="-345" as="sourcePoint" />
            <mxPoint x="-967.1700000000001" y="-345" as="targetPoint" />
            <Array as="points">
              <mxPoint x="-1052.67" y="-345" />
            </Array>
          </mxGeometry>
        </mxCell>
        <mxCell id="zKL8gyBiCPiRNHRH7Rql-15" value="生成账单" style="edgeStyle=orthogonalEdgeStyle;html=1;align=left;spacingLeft=2;endArrow=block;rounded=0;" parent="1" edge="1">
          <mxGeometry x="-0.0175" y="-16" relative="1" as="geometry">
            <mxPoint x="-965.5" y="-476" as="sourcePoint" />
            <Array as="points">
              <mxPoint x="-940" y="-476" />
              <mxPoint x="-940" y="-444" />
            </Array>
            <mxPoint x="-966.9761904761906" y="-444" as="targetPoint" />
            <mxPoint as="offset" />
          </mxGeometry>
        </mxCell>
        <mxCell id="zKL8gyBiCPiRNHRH7Rql-16" value="支付预下单" style="endArrow=classic;html=1;" parent="1" edge="1">
          <mxGeometry width="50" height="50" relative="1" as="geometry">
            <mxPoint x="-966.1733333333334" y="-283" as="sourcePoint" />
            <mxPoint x="-619.17" y="-283" as="targetPoint" />
            <Array as="points">
              <mxPoint x="-878.8399999999999" y="-283" />
            </Array>
          </mxGeometry>
        </mxCell>
        <mxCell id="zKL8gyBiCPiRNHRH7Rql-18" value="返回订单信息" style="endArrow=classic;html=1;dashed=1;" parent="1" edge="1">
          <mxGeometry width="50" height="50" relative="1" as="geometry">
            <mxPoint x="-616.0899999999999" y="-226" as="sourcePoint" />
            <mxPoint x="-965.4233333333335" y="-226" as="targetPoint" />
            <Array as="points">
              <mxPoint x="-692.5899999999999" y="-226" />
            </Array>
          </mxGeometry>
        </mxCell>
        <mxCell id="zKL8gyBiCPiRNHRH7Rql-19" value="创建订单" style="edgeStyle=orthogonalEdgeStyle;html=1;align=left;spacingLeft=2;endArrow=block;rounded=0;" parent="1" edge="1">
          <mxGeometry x="-0.0175" y="-16" relative="1" as="geometry">
            <mxPoint x="-967.1700000000001" y="-331" as="sourcePoint" />
            <Array as="points">
              <mxPoint x="-941.6700000000001" y="-331" />
              <mxPoint x="-941.6700000000001" y="-299" />
            </Array>
            <mxPoint x="-969.0033333333336" y="-299" as="targetPoint" />
            <mxPoint as="offset" />
          </mxGeometry>
        </mxCell>
        <mxCell id="zKL8gyBiCPiRNHRH7Rql-20" value="展示订单信息" style="endArrow=classic;html=1;dashed=1;" parent="1" edge="1">
          <mxGeometry width="50" height="50" relative="1" as="geometry">
            <mxPoint x="-969" y="-204" as="sourcePoint" />
            <mxPoint x="-1144" y="-204" as="targetPoint" />
            <Array as="points">
              <mxPoint x="-1045.5" y="-204" />
            </Array>
          </mxGeometry>
        </mxCell>
        <mxCell id="zKL8gyBiCPiRNHRH7Rql-21" value="发起支付" style="endArrow=classic;html=1;" parent="1" edge="1">
          <mxGeometry width="50" height="50" relative="1" as="geometry">
            <mxPoint x="-1143.6733333333334" y="-133" as="sourcePoint" />
            <mxPoint x="-793.1699999999998" y="-133" as="targetPoint" />
            <Array as="points">
              <mxPoint x="-1056.34" y="-133" />
            </Array>
          </mxGeometry>
        </mxCell>
        <mxCell id="zKL8gyBiCPiRNHRH7Rql-23" value="提交支付参数" style="endArrow=classic;html=1;" parent="1" target="zKL8gyBiCPiRNHRH7Rql-34" edge="1">
          <mxGeometry width="50" height="50" relative="1" as="geometry">
            <mxPoint x="-792.6733333333332" y="-117" as="sourcePoint" />
            <mxPoint x="-617.67" y="-117" as="targetPoint" />
            <Array as="points">
              <mxPoint x="-705.3399999999999" y="-117" />
            </Array>
          </mxGeometry>
        </mxCell>
        <mxCell id="zKL8gyBiCPiRNHRH7Rql-24" value="异步通知" style="endArrow=classic;html=1;dashed=1;" parent="1" edge="1">
          <mxGeometry width="50" height="50" relative="1" as="geometry">
            <mxPoint x="-618" y="-79" as="sourcePoint" />
            <mxPoint x="-967.3333333333336" y="-79" as="targetPoint" />
            <Array as="points">
              <mxPoint x="-694.4999999999999" y="-79" />
            </Array>
          </mxGeometry>
        </mxCell>
        <mxCell id="zKL8gyBiCPiRNHRH7Rql-25" value="前端通知" style="endArrow=classic;html=1;dashed=1;" parent="1" edge="1">
          <mxGeometry width="50" height="50" relative="1" as="geometry">
            <mxPoint x="-445.16999999999996" y="-51" as="sourcePoint" />
            <mxPoint x="-1144.0033333333333" y="-51" as="targetPoint" />
            <Array as="points">
              <mxPoint x="-697.8399999999999" y="-51" />
            </Array>
          </mxGeometry>
        </mxCell>
        <mxCell id="zKL8gyBiCPiRNHRH7Rql-28" value="交易查询" style="endArrow=classic;html=1;" parent="1" edge="1">
          <mxGeometry x="0.0106" width="50" height="50" relative="1" as="geometry">
            <mxPoint x="-1142.0033333333336" y="53" as="sourcePoint" />
            <mxPoint x="-969.1700000000003" y="53" as="targetPoint" />
            <Array as="points">
              <mxPoint x="-1054.67" y="53" />
            </Array>
            <mxPoint as="offset" />
          </mxGeometry>
        </mxCell>
        <mxCell id="zKL8gyBiCPiRNHRH7Rql-30" value="交易查询" style="endArrow=classic;html=1;" parent="1" edge="1">
          <mxGeometry width="50" height="50" relative="1" as="geometry">
            <mxPoint x="-968.0033333333333" y="67" as="sourcePoint" />
            <mxPoint x="-621.0000000000001" y="67" as="targetPoint" />
            <Array as="points">
              <mxPoint x="-880.67" y="67" />
            </Array>
          </mxGeometry>
        </mxCell>
        <mxCell id="zKL8gyBiCPiRNHRH7Rql-32" value="返回交易结果" style="endArrow=classic;html=1;dashed=1;" parent="1" edge="1">
          <mxGeometry width="50" height="50" relative="1" as="geometry">
            <mxPoint x="-620.67" y="114" as="sourcePoint" />
            <mxPoint x="-970.0033333333336" y="114" as="targetPoint" />
            <Array as="points">
              <mxPoint x="-697.17" y="114" />
            </Array>
          </mxGeometry>
        </mxCell>
        <mxCell id="zKL8gyBiCPiRNHRH7Rql-33" value="展示交易结果" style="endArrow=classic;html=1;dashed=1;" parent="1" edge="1">
          <mxGeometry width="50" height="50" relative="1" as="geometry">
            <mxPoint x="-969" y="136" as="sourcePoint" />
            <mxPoint x="-1144" y="136" as="targetPoint" />
            <Array as="points">
              <mxPoint x="-1045.5" y="136" />
            </Array>
          </mxGeometry>
        </mxCell>
        <mxCell id="zKL8gyBiCPiRNHRH7Rql-34" value="银联综合支付平台" style="shape=umlLifeline;perimeter=lifelinePerimeter;whiteSpace=wrap;html=1;container=1;collapsible=0;recursiveResize=0;outlineConnect=0;" parent="1" vertex="1">
          <mxGeometry x="-493" y="-542" width="100" height="770" as="geometry" />
        </mxCell>
        <mxCell id="zKL8gyBiCPiRNHRH7Rql-35" value="调用统一下单接口" style="endArrow=classic;html=1;" parent="1" edge="1">
          <mxGeometry width="50" height="50" relative="1" as="geometry">
            <mxPoint x="-617.0033333333336" y="-272" as="sourcePoint" />
            <mxPoint x="-444.1700000000003" y="-272" as="targetPoint" />
            <Array as="points">
              <mxPoint x="-529.67" y="-272" />
            </Array>
          </mxGeometry>
        </mxCell>
        <mxCell id="zKL8gyBiCPiRNHRH7Rql-36" value="返回支付参数" style="endArrow=classic;html=1;dashed=1;" parent="1" target="zKL8gyBiCPiRNHRH7Rql-4" edge="1">
          <mxGeometry width="50" height="50" relative="1" as="geometry">
            <mxPoint x="-445" y="-248" as="sourcePoint" />
            <mxPoint x="-615" y="-248" as="targetPoint" />
            <Array as="points">
              <mxPoint x="-521.5" y="-248" />
            </Array>
          </mxGeometry>
        </mxCell>
        <mxCell id="zKL8gyBiCPiRNHRH7Rql-39" value="异步通知" style="endArrow=classic;html=1;dashed=1;" parent="1" edge="1">
          <mxGeometry width="50" height="50" relative="1" as="geometry">
            <mxPoint x="-444.6700000000002" y="-95" as="sourcePoint" />
            <mxPoint x="-619.6700000000002" y="-95" as="targetPoint" />
            <Array as="points">
              <mxPoint x="-521.17" y="-95" />
            </Array>
          </mxGeometry>
        </mxCell>
        <mxCell id="zKL8gyBiCPiRNHRH7Rql-40" value="调用查询订单接口" style="endArrow=classic;html=1;" parent="1" edge="1">
          <mxGeometry x="0.0106" width="50" height="50" relative="1" as="geometry">
            <mxPoint x="-615.0033333333336" y="80" as="sourcePoint" />
            <mxPoint x="-442.1700000000003" y="80" as="targetPoint" />
            <Array as="points">
              <mxPoint x="-527.67" y="80" />
            </Array>
            <mxPoint as="offset" />
          </mxGeometry>
        </mxCell>
        <mxCell id="zKL8gyBiCPiRNHRH7Rql-41" value="返回订单状态" style="endArrow=classic;html=1;dashed=1;" parent="1" edge="1">
          <mxGeometry width="50" height="50" relative="1" as="geometry">
            <mxPoint x="-444" y="100" as="sourcePoint" />
            <mxPoint x="-619" y="100" as="targetPoint" />
            <Array as="points">
              <mxPoint x="-520.5" y="100" />
            </Array>
          </mxGeometry>
        </mxCell>
        <mxCell id="zKL8gyBiCPiRNHRH7Rql-42" value="没有收到前端通知" style="shape=umlFrame;whiteSpace=wrap;html=1;" parent="1" vertex="1">
          <mxGeometry x="302" y="-174" width="484" height="106" as="geometry" />
        </mxCell>
        <mxCell id="zKL8gyBiCPiRNHRH7Rql-43" style="edgeStyle=orthogonalEdgeStyle;rounded=0;orthogonalLoop=1;jettySize=auto;html=1;exitX=0.5;exitY=1;exitDx=0;exitDy=0;" parent="1" edge="1">
          <mxGeometry relative="1" as="geometry">
            <mxPoint x="1044.5" y="250" as="sourcePoint" />
            <mxPoint x="1044.5" y="250" as="targetPoint" />
          </mxGeometry>
        </mxCell>
        <mxCell id="zKL8gyBiCPiRNHRH7Rql-44" value="用户" style="shape=umlLifeline;perimeter=lifelinePerimeter;whiteSpace=wrap;html=1;container=1;collapsible=0;recursiveResize=0;outlineConnect=0;" parent="1" vertex="1">
          <mxGeometry x="170" y="-572" width="100" height="872" as="geometry" />
        </mxCell>
        <mxCell id="zKL8gyBiCPiRNHRH7Rql-45" value="终端设备" style="shape=umlLifeline;perimeter=lifelinePerimeter;whiteSpace=wrap;html=1;container=1;collapsible=0;recursiveResize=0;outlineConnect=0;" parent="1" vertex="1">
          <mxGeometry x="345" y="-572" width="100" height="848" as="geometry" />
        </mxCell>
        <mxCell id="zKL8gyBiCPiRNHRH7Rql-46" value="金融交易支付系统" style="shape=umlLifeline;perimeter=lifelinePerimeter;whiteSpace=wrap;html=1;container=1;collapsible=0;recursiveResize=0;outlineConnect=0;" parent="1" vertex="1">
          <mxGeometry x="521" y="-572" width="100" height="878" as="geometry" />
        </mxCell>
        <mxCell id="zKL8gyBiCPiRNHRH7Rql-47" value="&lt;span&gt;银联综合支付平台&lt;/span&gt;" style="shape=umlLifeline;perimeter=lifelinePerimeter;whiteSpace=wrap;html=1;container=1;collapsible=0;recursiveResize=0;outlineConnect=0;" parent="1" vertex="1">
          <mxGeometry x="694" y="-572" width="100" height="828" as="geometry" />
        </mxCell>
        <mxCell id="zKL8gyBiCPiRNHRH7Rql-48" value="请求下单" style="endArrow=classic;html=1;" parent="1" edge="1">
          <mxGeometry x="-0.0734" width="50" height="50" relative="1" as="geometry">
            <mxPoint x="394.9966666666661" y="-451" as="sourcePoint" />
            <mxPoint x="569.83" y="-451" as="targetPoint" />
            <Array as="points" />
            <mxPoint as="offset" />
          </mxGeometry>
        </mxCell>
        <mxCell id="zKL8gyBiCPiRNHRH7Rql-51" value="生成订单" style="edgeStyle=orthogonalEdgeStyle;html=1;align=left;spacingLeft=2;endArrow=block;rounded=0;" parent="1" edge="1">
          <mxGeometry x="-0.0175" y="-16" relative="1" as="geometry">
            <mxPoint x="396.5" y="-506" as="sourcePoint" />
            <Array as="points">
              <mxPoint x="422" y="-506" />
              <mxPoint x="422" y="-474" />
            </Array>
            <mxPoint x="395.0238095238092" y="-474" as="targetPoint" />
            <mxPoint as="offset" />
          </mxGeometry>
        </mxCell>
        <mxCell id="zKL8gyBiCPiRNHRH7Rql-58" value="异步通知" style="endArrow=classic;html=1;dashed=1;" parent="1" edge="1">
          <mxGeometry width="50" height="50" relative="1" as="geometry">
            <mxPoint x="745.67" y="-252" as="sourcePoint" />
            <mxPoint x="569" y="-252" as="targetPoint" />
            <Array as="points">
              <mxPoint x="669.1700000000001" y="-252" />
            </Array>
          </mxGeometry>
        </mxCell>
        <mxCell id="zKL8gyBiCPiRNHRH7Rql-59" value="展示支付结果" style="endArrow=classic;html=1;dashed=1;" parent="1" edge="1">
          <mxGeometry width="50" height="50" relative="1" as="geometry">
            <mxPoint x="740" y="-235" as="sourcePoint" />
            <mxPoint x="217.9966666666669" y="-235" as="targetPoint" />
            <Array as="points">
              <mxPoint x="664.1600000000001" y="-235" />
            </Array>
          </mxGeometry>
        </mxCell>
        <mxCell id="zKL8gyBiCPiRNHRH7Rql-60" value="交易查询" style="endArrow=classic;html=1;" parent="1" edge="1">
          <mxGeometry x="0.0106" width="50" height="50" relative="1" as="geometry">
            <mxPoint x="395.996666666666" y="-155" as="sourcePoint" />
            <mxPoint x="568.8299999999999" y="-155" as="targetPoint" />
            <Array as="points">
              <mxPoint x="483.3299999999999" y="-155" />
            </Array>
            <mxPoint as="offset" />
          </mxGeometry>
        </mxCell>
        <mxCell id="zKL8gyBiCPiRNHRH7Rql-68" value="调用查询订单接口" style="endArrow=classic;html=1;" parent="1" edge="1">
          <mxGeometry x="0.0106" width="50" height="50" relative="1" as="geometry">
            <mxPoint x="572.996666666666" y="-136.71" as="sourcePoint" />
            <mxPoint x="745.8299999999999" y="-136.71" as="targetPoint" />
            <Array as="points">
              <mxPoint x="660.33" y="-136.71" />
            </Array>
            <mxPoint as="offset" />
          </mxGeometry>
        </mxCell>
        <mxCell id="zKL8gyBiCPiRNHRH7Rql-69" value="返回订单状态" style="endArrow=classic;html=1;dashed=1;" parent="1" edge="1">
          <mxGeometry width="50" height="50" relative="1" as="geometry">
            <mxPoint x="747" y="-106.71000000000001" as="sourcePoint" />
            <mxPoint x="572" y="-106.71000000000001" as="targetPoint" />
            <Array as="points">
              <mxPoint x="670.5" y="-106.71000000000001" />
            </Array>
          </mxGeometry>
        </mxCell>
        <mxCell id="zKL8gyBiCPiRNHRH7Rql-70" value="调用统一下单接口" style="endArrow=classic;html=1;" parent="1" edge="1">
          <mxGeometry width="50" height="50" relative="1" as="geometry">
            <mxPoint x="569.996666666666" y="-438" as="sourcePoint" />
            <mxPoint x="744.8299999999999" y="-438" as="targetPoint" />
            <Array as="points">
              <mxPoint x="657.33" y="-438" />
            </Array>
          </mxGeometry>
        </mxCell>
        <mxCell id="zKL8gyBiCPiRNHRH7Rql-71" value="返回code_url" style="endArrow=classic;html=1;dashed=1;" parent="1" edge="1">
          <mxGeometry width="50" height="50" relative="1" as="geometry">
            <mxPoint x="742.5" y="-413.99999999999955" as="sourcePoint" />
            <mxPoint x="569" y="-414" as="targetPoint" />
            <Array as="points">
              <mxPoint x="666" y="-414" />
            </Array>
          </mxGeometry>
        </mxCell>
        <mxCell id="zKL8gyBiCPiRNHRH7Rql-75" value="生成二维码" style="edgeStyle=orthogonalEdgeStyle;html=1;align=left;spacingLeft=2;endArrow=block;rounded=0;" parent="1" edge="1">
          <mxGeometry x="1" y="-15" relative="1" as="geometry">
            <mxPoint x="395.48" y="-376" as="sourcePoint" />
            <Array as="points">
              <mxPoint x="420.98" y="-376" />
              <mxPoint x="420.98" y="-344" />
            </Array>
            <mxPoint x="394.0038095238092" y="-344" as="targetPoint" />
            <mxPoint as="offset" />
          </mxGeometry>
        </mxCell>
        <mxCell id="zKL8gyBiCPiRNHRH7Rql-77" value="扫描二维码" style="endArrow=classic;html=1;" parent="1" edge="1">
          <mxGeometry x="-0.0734" width="50" height="50" relative="1" as="geometry">
            <mxPoint x="219.996666666666" y="-328" as="sourcePoint" />
            <mxPoint x="394.8299999999999" y="-328" as="targetPoint" />
            <Array as="points" />
            <mxPoint as="offset" />
          </mxGeometry>
        </mxCell>
        <mxCell id="zKL8gyBiCPiRNHRH7Rql-78" value="返回code_url" style="endArrow=classic;html=1;dashed=1;" parent="1" edge="1">
          <mxGeometry width="50" height="50" relative="1" as="geometry">
            <mxPoint x="568.5" y="-395.99999999999955" as="sourcePoint" />
            <mxPoint x="395" y="-396" as="targetPoint" />
            <Array as="points">
              <mxPoint x="492" y="-396" />
            </Array>
          </mxGeometry>
        </mxCell>
        <mxCell id="zKL8gyBiCPiRNHRH7Rql-79" value="请求支付" style="endArrow=classic;html=1;" parent="1" target="zKL8gyBiCPiRNHRH7Rql-47" edge="1">
          <mxGeometry x="-0.0734" width="50" height="50" relative="1" as="geometry">
            <mxPoint x="219.99666666666553" y="-283" as="sourcePoint" />
            <mxPoint x="394.8299999999999" y="-283" as="targetPoint" />
            <Array as="points" />
            <mxPoint as="offset" />
          </mxGeometry>
        </mxCell>
        <mxCell id="zKL8gyBiCPiRNHRH7Rql-81" value="返回订单状态" style="endArrow=classic;html=1;dashed=1;" parent="1" edge="1">
          <mxGeometry width="50" height="50" relative="1" as="geometry">
            <mxPoint x="570" y="-83.00000000000003" as="sourcePoint" />
            <mxPoint x="395" y="-83.00000000000003" as="targetPoint" />
            <Array as="points">
              <mxPoint x="493.5" y="-83" />
            </Array>
          </mxGeometry>
        </mxCell>
        <mxCell id="zKL8gyBiCPiRNHRH7Rql-83" style="edgeStyle=orthogonalEdgeStyle;rounded=0;orthogonalLoop=1;jettySize=auto;html=1;exitX=0.5;exitY=1;exitDx=0;exitDy=0;" parent="1" edge="1">
          <mxGeometry relative="1" as="geometry">
            <mxPoint x="2084.5" y="240" as="sourcePoint" />
            <mxPoint x="2084.5" y="240" as="targetPoint" />
          </mxGeometry>
        </mxCell>
        <mxCell id="zKL8gyBiCPiRNHRH7Rql-84" value="用户" style="shape=umlLifeline;perimeter=lifelinePerimeter;whiteSpace=wrap;html=1;container=1;collapsible=0;recursiveResize=0;outlineConnect=0;" parent="1" vertex="1">
          <mxGeometry x="1210" y="-582" width="100" height="872" as="geometry" />
        </mxCell>
        <mxCell id="zKL8gyBiCPiRNHRH7Rql-85" value="扫码终端设备" style="shape=umlLifeline;perimeter=lifelinePerimeter;whiteSpace=wrap;html=1;container=1;collapsible=0;recursiveResize=0;outlineConnect=0;" parent="1" vertex="1">
          <mxGeometry x="1385" y="-582" width="100" height="848" as="geometry" />
        </mxCell>
        <mxCell id="zKL8gyBiCPiRNHRH7Rql-86" value="金融交易支付系统" style="shape=umlLifeline;perimeter=lifelinePerimeter;whiteSpace=wrap;html=1;container=1;collapsible=0;recursiveResize=0;outlineConnect=0;" parent="1" vertex="1">
          <mxGeometry x="1737" y="-582" width="100" height="878" as="geometry" />
        </mxCell>
        <mxCell id="zKL8gyBiCPiRNHRH7Rql-87" value="&lt;span&gt;银联综合支付平台&lt;/span&gt;" style="shape=umlLifeline;perimeter=lifelinePerimeter;whiteSpace=wrap;html=1;container=1;collapsible=0;recursiveResize=0;outlineConnect=0;" parent="1" vertex="1">
          <mxGeometry x="1914" y="-582" width="100" height="828" as="geometry" />
        </mxCell>
        <mxCell id="zKL8gyBiCPiRNHRH7Rql-89" value="生成订单" style="edgeStyle=orthogonalEdgeStyle;html=1;align=left;spacingLeft=2;endArrow=block;rounded=0;" parent="1" edge="1">
          <mxGeometry x="-0.0175" y="-16" relative="1" as="geometry">
            <mxPoint x="1435.48" y="-340" as="sourcePoint" />
            <Array as="points">
              <mxPoint x="1460.98" y="-340" />
              <mxPoint x="1460.98" y="-308" />
            </Array>
            <mxPoint x="1434.0038095238092" y="-308" as="targetPoint" />
            <mxPoint as="offset" />
          </mxGeometry>
        </mxCell>
        <mxCell id="zKL8gyBiCPiRNHRH7Rql-92" value="交易查询" style="endArrow=classic;html=1;" parent="1" edge="1">
          <mxGeometry x="0.0106" width="50" height="50" relative="1" as="geometry">
            <mxPoint x="1434.5" y="-156" as="sourcePoint" />
            <mxPoint x="1787.83" y="-156" as="targetPoint" />
            <Array as="points">
              <mxPoint x="1702.33" y="-156" />
            </Array>
            <mxPoint as="offset" />
          </mxGeometry>
        </mxCell>
        <mxCell id="zKL8gyBiCPiRNHRH7Rql-93" value="调用查询订单接口" style="endArrow=classic;html=1;" parent="1" edge="1">
          <mxGeometry x="0.0106" width="50" height="50" relative="1" as="geometry">
            <mxPoint x="1791.996666666666" y="-137.71000000000004" as="sourcePoint" />
            <mxPoint x="1964.83" y="-137.71000000000004" as="targetPoint" />
            <Array as="points">
              <mxPoint x="1879.33" y="-137.71000000000004" />
            </Array>
            <mxPoint as="offset" />
          </mxGeometry>
        </mxCell>
        <mxCell id="zKL8gyBiCPiRNHRH7Rql-94" value="返回订单状态" style="endArrow=classic;html=1;dashed=1;" parent="1" edge="1">
          <mxGeometry width="50" height="50" relative="1" as="geometry">
            <mxPoint x="1966" y="-107.71000000000004" as="sourcePoint" />
            <mxPoint x="1791" y="-107.71000000000004" as="targetPoint" />
            <Array as="points">
              <mxPoint x="1889.5" y="-107.71000000000001" />
            </Array>
          </mxGeometry>
        </mxCell>
        <mxCell id="zKL8gyBiCPiRNHRH7Rql-99" value="扫描二维码" style="endArrow=classic;html=1;" parent="1" edge="1">
          <mxGeometry width="50" height="50" relative="1" as="geometry">
            <mxPoint x="1434.5" y="-468.99999999999955" as="sourcePoint" />
            <mxPoint x="1261" y="-469" as="targetPoint" />
            <Array as="points">
              <mxPoint x="1358" y="-469" />
            </Array>
          </mxGeometry>
        </mxCell>
        <mxCell id="zKL8gyBiCPiRNHRH7Rql-101" value="返回订单状态" style="endArrow=classic;html=1;dashed=1;" parent="1" edge="1">
          <mxGeometry width="50" height="50" relative="1" as="geometry">
            <mxPoint x="1789" y="-83.99999999999955" as="sourcePoint" />
            <mxPoint x="1434.5" y="-84" as="targetPoint" />
            <Array as="points">
              <mxPoint x="1712.5" y="-84" />
            </Array>
          </mxGeometry>
        </mxCell>
        <mxCell id="zKL8gyBiCPiRNHRH7Rql-102" value="展示付款码码" style="edgeStyle=orthogonalEdgeStyle;html=1;align=left;spacingLeft=2;endArrow=block;rounded=0;" parent="1" edge="1">
          <mxGeometry x="-0.0175" y="-16" relative="1" as="geometry">
            <mxPoint x="1260.48" y="-518" as="sourcePoint" />
            <Array as="points">
              <mxPoint x="1285.98" y="-518" />
              <mxPoint x="1285.98" y="-486" />
            </Array>
            <mxPoint x="1259.0038095238087" y="-486" as="targetPoint" />
            <mxPoint as="offset" />
          </mxGeometry>
        </mxCell>
        <mxCell id="zKL8gyBiCPiRNHRH7Rql-104" value="请求支付" style="endArrow=classic;html=1;" parent="1" target="zKL8gyBiCPiRNHRH7Rql-86" edge="1">
          <mxGeometry x="0.0106" width="50" height="50" relative="1" as="geometry">
            <mxPoint x="1436.996666666666" y="-270.9999999999998" as="sourcePoint" />
            <mxPoint x="1609.8299999999995" y="-270.9999999999998" as="targetPoint" />
            <Array as="points">
              <mxPoint x="1524.33" y="-271" />
            </Array>
            <mxPoint as="offset" />
          </mxGeometry>
        </mxCell>
        <mxCell id="zKL8gyBiCPiRNHRH7Rql-105" value="调用提交刷卡支付接口" style="endArrow=classic;html=1;" parent="1" edge="1">
          <mxGeometry x="0.0106" width="50" height="50" relative="1" as="geometry">
            <mxPoint x="1789.9966666666664" y="-252" as="sourcePoint" />
            <mxPoint x="1962.83" y="-252" as="targetPoint" />
            <Array as="points">
              <mxPoint x="1877.33" y="-252" />
            </Array>
            <mxPoint as="offset" />
          </mxGeometry>
        </mxCell>
        <mxCell id="zKL8gyBiCPiRNHRH7Rql-106" value="返回支付结果" style="endArrow=classic;html=1;dashed=1;" parent="1" edge="1">
          <mxGeometry width="50" height="50" relative="1" as="geometry">
            <mxPoint x="1963.9999999999995" y="-227" as="sourcePoint" />
            <mxPoint x="1788.9999999999995" y="-227" as="targetPoint" />
            <Array as="points">
              <mxPoint x="1887.5" y="-227" />
            </Array>
          </mxGeometry>
        </mxCell>
        <mxCell id="zKL8gyBiCPiRNHRH7Rql-107" value="返回订单状态" style="endArrow=classic;html=1;dashed=1;" parent="1" source="zKL8gyBiCPiRNHRH7Rql-86" edge="1">
          <mxGeometry width="50" height="50" relative="1" as="geometry">
            <mxPoint x="1611" y="-207" as="sourcePoint" />
            <mxPoint x="1436" y="-207" as="targetPoint" />
            <Array as="points">
              <mxPoint x="1534.5" y="-207" />
            </Array>
          </mxGeometry>
        </mxCell>
        <mxCell id="zKL8gyBiCPiRNHRH7Rql-110" value="身份认证平台" style="shape=umlLifeline;perimeter=lifelinePerimeter;whiteSpace=wrap;html=1;container=1;collapsible=0;recursiveResize=0;outlineConnect=0;" parent="1" vertex="1">
          <mxGeometry x="1561" y="-582" width="100" height="878" as="geometry" />
        </mxCell>
        <mxCell id="zKL8gyBiCPiRNHRH7Rql-113" value="请求核身" style="endArrow=classic;html=1;" parent="1" edge="1">
          <mxGeometry x="0.0106" width="50" height="50" relative="1" as="geometry">
            <mxPoint x="1436.996666666666" y="-444.9999999999998" as="sourcePoint" />
            <mxPoint x="1609.83" y="-444.9999999999998" as="targetPoint" />
            <Array as="points">
              <mxPoint x="1524.33" y="-445" />
            </Array>
            <mxPoint as="offset" />
          </mxGeometry>
        </mxCell>
        <mxCell id="zKL8gyBiCPiRNHRH7Rql-114" value="返回身份" style="endArrow=classic;html=1;dashed=1;" parent="1" edge="1">
          <mxGeometry width="50" height="50" relative="1" as="geometry">
            <mxPoint x="1607.9999999999995" y="-421" as="sourcePoint" />
            <mxPoint x="1432.9999999999995" y="-421" as="targetPoint" />
            <Array as="points">
              <mxPoint x="1531.5" y="-421" />
            </Array>
          </mxGeometry>
        </mxCell>
        <mxCell id="zKL8gyBiCPiRNHRH7Rql-115" value="获取费率" style="endArrow=classic;html=1;" parent="1" edge="1">
          <mxGeometry x="0.0106" width="50" height="50" relative="1" as="geometry">
            <mxPoint x="1436.996666666666" y="-386.9999999999998" as="sourcePoint" />
            <mxPoint x="1609.8300000000004" y="-386.9999999999998" as="targetPoint" />
            <Array as="points">
              <mxPoint x="1524.33" y="-387" />
            </Array>
            <mxPoint as="offset" />
          </mxGeometry>
        </mxCell>
        <mxCell id="zKL8gyBiCPiRNHRH7Rql-117" value="返回费率" style="endArrow=classic;html=1;dashed=1;" parent="1" edge="1">
          <mxGeometry width="50" height="50" relative="1" as="geometry">
            <mxPoint x="1610.9999999999995" y="-365" as="sourcePoint" />
            <mxPoint x="1435.9999999999995" y="-365" as="targetPoint" />
            <Array as="points">
              <mxPoint x="1534.5" y="-365" />
            </Array>
          </mxGeometry>
        </mxCell>
        <mxCell id="zKL8gyBiCPiRNHRH7Rql-118" value="异步通知" style="endArrow=classic;html=1;dashed=1;" parent="1" edge="1">
          <mxGeometry width="50" height="50" relative="1" as="geometry">
            <mxPoint x="568.66" y="-205" as="sourcePoint" />
            <mxPoint x="394.9966666666657" y="-205" as="targetPoint" />
            <Array as="points" />
          </mxGeometry>
        </mxCell>
      </root>
    </mxGraphModel>
  </diagram>
  <diagram name="一期需求" id="zqKTm7wav68fdyJW1Eh4">
    <mxGraphModel dx="879" dy="5077" grid="0" gridSize="10" guides="1" tooltips="1" connect="1" arrows="1" fold="1" page="0" pageScale="1" pageWidth="827" pageHeight="1169" background="none" math="0" shadow="1">
      <root>
        <mxCell id="0" />
        <mxCell id="1" parent="0" />
        <mxCell id="pcRD8LiX77kpORbWio1C-9" value="&lt;p class=&quot;MsoNormal&quot;&gt;&lt;br&gt;&lt;/p&gt;" style="rounded=0;whiteSpace=wrap;html=1;" vertex="1" parent="1">
          <mxGeometry x="996" y="-4138" width="624" height="383" as="geometry" />
        </mxCell>
        <mxCell id="xBJP_5Ue3mvzY2de2lxV-6" value="微信码核身" style="shape=umlFrame;whiteSpace=wrap;html=1;width=102;height=22;shadow=0;fillColor=#E6FFCC;strokeColor=#B3B3B3;" parent="1" vertex="1">
          <mxGeometry x="775" y="-2743" width="555.5" height="135" as="geometry" />
        </mxCell>
        <mxCell id="xBJP_5Ue3mvzY2de2lxV-3" value="银联码核身" style="shape=umlFrame;whiteSpace=wrap;html=1;width=102;height=22;fillColor=#E6FFCC;strokeColor=#B3B3B3;" parent="1" vertex="1">
          <mxGeometry x="775" y="-2941" width="555.5" height="73" as="geometry" />
        </mxCell>
        <mxCell id="xBJP_5Ue3mvzY2de2lxV-9" value="支付宝码核身" style="shape=umlFrame;whiteSpace=wrap;html=1;width=102;height=22;shadow=0;fillColor=#E6FFCC;strokeColor=#B3B3B3;" parent="1" vertex="1">
          <mxGeometry x="775" y="-2848" width="555.5" height="88" as="geometry" />
        </mxCell>
        <mxCell id="Q-zQrgqXcNni66PcAH7A-31" value="DT" style="shape=umlLifeline;perimeter=lifelinePerimeter;whiteSpace=wrap;html=1;container=1;collapsible=0;recursiveResize=0;outlineConnect=0;labelBackgroundColor=none;fillColor=#d5e8d4;strokeColor=#82b366;" parent="1" vertex="1">
          <mxGeometry x="1165" y="-3162" width="112" height="580" as="geometry" />
        </mxCell>
        <mxCell id="Q-zQrgqXcNni66PcAH7A-30" value="" style="edgeStyle=orthogonalEdgeStyle;rounded=0;orthogonalLoop=1;jettySize=auto;html=1;fontSize=8;fontColor=#000000;verticalAlign=middle;" parent="1" source="Q-zQrgqXcNni66PcAH7A-28" target="Q-zQrgqXcNni66PcAH7A-29" edge="1">
          <mxGeometry relative="1" as="geometry">
            <mxPoint x="853" y="-3086" as="sourcePoint" />
            <mxPoint x="1220.5" y="-3081" as="targetPoint" />
            <Array as="points">
              <mxPoint x="990" y="-3096" />
              <mxPoint x="990" y="-3096" />
            </Array>
          </mxGeometry>
        </mxCell>
        <mxCell id="Q-zQrgqXcNni66PcAH7A-36" value="请求核身" style="edgeLabel;html=1;align=center;verticalAlign=middle;resizable=0;points=[];fontSize=8;fontColor=#000000;" parent="Q-zQrgqXcNni66PcAH7A-30" vertex="1" connectable="0">
          <mxGeometry x="0.0267" y="-1" relative="1" as="geometry">
            <mxPoint x="-5.3" y="-2.71" as="offset" />
          </mxGeometry>
        </mxCell>
        <mxCell id="Q-zQrgqXcNni66PcAH7A-28" value="V8平台" style="shape=umlLifeline;perimeter=lifelinePerimeter;whiteSpace=wrap;html=1;container=1;collapsible=0;recursiveResize=0;outlineConnect=0;fillColor=#d5e8d4;strokeColor=#82b366;" parent="1" vertex="1">
          <mxGeometry x="781" y="-3162" width="112" height="580" as="geometry" />
        </mxCell>
        <mxCell id="Q-zQrgqXcNni66PcAH7A-29" value="支付平台" style="shape=umlLifeline;perimeter=lifelinePerimeter;whiteSpace=wrap;html=1;container=1;collapsible=0;recursiveResize=0;outlineConnect=0;fillColor=#d5e8d4;strokeColor=#82b366;" parent="1" vertex="1">
          <mxGeometry x="973" y="-3162" width="112" height="580" as="geometry" />
        </mxCell>
        <mxCell id="Q-zQrgqXcNni66PcAH7A-39" value="" style="edgeStyle=orthogonalEdgeStyle;rounded=0;orthogonalLoop=1;jettySize=auto;html=1;fontSize=8;fontColor=#B3B3B3;" parent="1" edge="1">
          <mxGeometry relative="1" as="geometry">
            <mxPoint x="1029.150344827586" y="-3020.9955172413793" as="sourcePoint" />
            <mxPoint x="1412.84" y="-3021.03" as="targetPoint" />
            <Array as="points">
              <mxPoint x="1173.34" y="-3021.03" />
              <mxPoint x="1173.34" y="-3021.03" />
            </Array>
          </mxGeometry>
        </mxCell>
        <mxCell id="Q-zQrgqXcNni66PcAH7A-40" value="请求核身" style="edgeLabel;html=1;align=center;verticalAlign=middle;resizable=0;points=[];fontSize=8;labelBackgroundColor=#ffffff;" parent="Q-zQrgqXcNni66PcAH7A-39" vertex="1" connectable="0">
          <mxGeometry x="0.0784" y="3" relative="1" as="geometry">
            <mxPoint x="-15.05" y="1.01" as="offset" />
          </mxGeometry>
        </mxCell>
        <mxCell id="Q-zQrgqXcNni66PcAH7A-42" value="返回三方用户标识" style="edgeStyle=orthogonalEdgeStyle;rounded=0;orthogonalLoop=1;jettySize=auto;html=1;fontSize=8;fontColor=#000000;dashed=1;" parent="1" edge="1">
          <mxGeometry relative="1" as="geometry">
            <mxPoint x="1412.34" y="-2980.03" as="sourcePoint" />
            <mxPoint x="1029.150344827586" y="-2980.03" as="targetPoint" />
            <Array as="points">
              <mxPoint x="1138.34" y="-2980.03" />
              <mxPoint x="1138.34" y="-2980.03" />
            </Array>
          </mxGeometry>
        </mxCell>
        <mxCell id="Q-zQrgqXcNni66PcAH7A-33" value="银联平台" style="shape=umlLifeline;perimeter=lifelinePerimeter;whiteSpace=wrap;html=1;container=1;collapsible=0;recursiveResize=0;outlineConnect=0;fillColor=#d5e8d4;strokeColor=#82b366;" parent="1" vertex="1">
          <mxGeometry x="1359" y="-3161" width="112" height="580" as="geometry" />
        </mxCell>
        <mxCell id="Q-zQrgqXcNni66PcAH7A-37" value="paywayid、二维码" style="text;html=1;strokeColor=none;fillColor=none;align=center;verticalAlign=middle;rounded=0;fontSize=8;fontColor=#B3B3B3;fontStyle=2;labelBackgroundColor=#ffffff;" parent="1" vertex="1">
          <mxGeometry x="881" y="-3093" width="95" height="20" as="geometry" />
        </mxCell>
        <mxCell id="Q-zQrgqXcNni66PcAH7A-41" value="二维码、二维码类型、subappid|支付宝学校编号" style="text;html=1;strokeColor=none;fillColor=none;align=center;verticalAlign=middle;rounded=0;fontSize=8;fontColor=#B3B3B3;fontStyle=2;labelBackgroundColor=#ffffff;" parent="1" vertex="1">
          <mxGeometry x="1147.34" y="-3020.03" width="154.66" height="22" as="geometry" />
        </mxCell>
        <mxCell id="Q-zQrgqXcNni66PcAH7A-43" value="subopenid|一卡通号|用户信息散列值" style="text;html=1;strokeColor=none;fillColor=none;align=center;verticalAlign=middle;rounded=0;fontSize=8;fontColor=#B3B3B3;fontStyle=2;labelBackgroundColor=#ffffff;" parent="1" vertex="1">
          <mxGeometry x="1147.34" y="-2974.03" width="152" height="16" as="geometry" />
        </mxCell>
        <mxCell id="Q-zQrgqXcNni66PcAH7A-44" value="获取用户身份信息" style="edgeStyle=orthogonalEdgeStyle;rounded=0;orthogonalLoop=1;jettySize=auto;html=1;fontSize=8;fontColor=#000000;" parent="1" edge="1">
          <mxGeometry relative="1" as="geometry">
            <mxPoint x="1030.0000000000002" y="-2721" as="sourcePoint" />
            <mxPoint x="1221.9999999999998" y="-2721" as="targetPoint" />
            <Array as="points">
              <mxPoint x="1159.5" y="-2721" />
              <mxPoint x="1159.5" y="-2721" />
            </Array>
          </mxGeometry>
        </mxCell>
        <mxCell id="Q-zQrgqXcNni66PcAH7A-45" value="" style="edgeStyle=orthogonalEdgeStyle;rounded=0;orthogonalLoop=1;jettySize=auto;html=1;fontSize=8;fontColor=#B3B3B3;dashed=1;" parent="1" edge="1">
          <mxGeometry relative="1" as="geometry">
            <mxPoint x="1222.0000000000002" y="-2666" as="sourcePoint" />
            <mxPoint x="1030" y="-2666" as="targetPoint" />
            <Array as="points">
              <mxPoint x="1097.5" y="-2666" />
              <mxPoint x="1097.5" y="-2666" />
            </Array>
          </mxGeometry>
        </mxCell>
        <mxCell id="Q-zQrgqXcNni66PcAH7A-46" value="返回用户信息" style="edgeLabel;html=1;align=center;verticalAlign=middle;resizable=0;points=[];fontSize=8;" parent="Q-zQrgqXcNni66PcAH7A-45" vertex="1" connectable="0">
          <mxGeometry x="0.0784" y="3" relative="1" as="geometry">
            <mxPoint x="-1.7763568394002505e-15" y="-5" as="offset" />
          </mxGeometry>
        </mxCell>
        <mxCell id="Q-zQrgqXcNni66PcAH7A-47" value="学校编号、三方编号、openid" style="text;html=1;strokeColor=none;fillColor=none;align=center;verticalAlign=middle;rounded=0;fontSize=8;fontColor=#B3B3B3;fontStyle=2;labelBackgroundColor=#ffffff;" parent="1" vertex="1">
          <mxGeometry x="1050" y="-2707" width="152" height="16" as="geometry" />
        </mxCell>
        <mxCell id="Q-zQrgqXcNni66PcAH7A-49" value="学工号、姓名" style="text;html=1;strokeColor=none;fillColor=none;align=center;verticalAlign=middle;rounded=0;fontSize=8;fontColor=#B3B3B3;fontStyle=2;labelBackgroundColor=#ffffff;" parent="1" vertex="1">
          <mxGeometry x="1039.5" y="-2661" width="152" height="16" as="geometry" />
        </mxCell>
        <mxCell id="Q-zQrgqXcNni66PcAH7A-52" value="返回三方用户信息" style="edgeStyle=orthogonalEdgeStyle;rounded=0;orthogonalLoop=1;jettySize=auto;html=1;fontSize=8;fontColor=#000000;dashed=1;" parent="1" edge="1">
          <mxGeometry x="0.0131" relative="1" as="geometry">
            <mxPoint x="1028.5" y="-2901" as="sourcePoint" />
            <mxPoint x="838" y="-2901" as="targetPoint" />
            <Array as="points">
              <mxPoint x="1002" y="-2901" />
              <mxPoint x="1002" y="-2901" />
            </Array>
            <mxPoint as="offset" />
          </mxGeometry>
        </mxCell>
        <mxCell id="Q-zQrgqXcNni66PcAH7A-53" value="学工号|hash值" style="text;html=1;strokeColor=none;fillColor=none;align=center;verticalAlign=middle;rounded=0;fontSize=8;fontColor=#B3B3B3;fontStyle=2;labelBackgroundColor=#ffffff;" parent="1" vertex="1">
          <mxGeometry x="852.5" y="-2892" width="152" height="16" as="geometry" />
        </mxCell>
        <mxCell id="Q-zQrgqXcNni66PcAH7A-76" value="备注：&lt;br&gt;1、支付宝码核身银联返回的一卡通号是学工号还是物理卡号？&lt;br&gt;2、DT没有根据三方用户标识获取用户学工号的接口？" style="shape=document;whiteSpace=wrap;html=1;boundedLbl=1;labelBackgroundColor=none;strokeColor=#d6b656;fontSize=14;fillColor=#fff2cc;align=left;verticalAlign=top;" parent="1" vertex="1">
          <mxGeometry x="775" y="-3394" width="316" height="112.03" as="geometry" />
        </mxCell>
        <mxCell id="xBJP_5Ue3mvzY2de2lxV-4" value="返回三方用户信息" style="edgeStyle=orthogonalEdgeStyle;rounded=0;orthogonalLoop=1;jettySize=auto;html=1;fontSize=8;fontColor=#000000;dashed=1;" parent="1" edge="1">
          <mxGeometry x="0.0131" relative="1" as="geometry">
            <mxPoint x="1027.5" y="-2643" as="sourcePoint" />
            <mxPoint x="837" y="-2643" as="targetPoint" />
            <Array as="points">
              <mxPoint x="1001" y="-2643" />
              <mxPoint x="1001" y="-2643" />
            </Array>
            <mxPoint as="offset" />
          </mxGeometry>
        </mxCell>
        <mxCell id="xBJP_5Ue3mvzY2de2lxV-5" value="学工号、姓名" style="text;html=1;strokeColor=none;fillColor=none;align=center;verticalAlign=middle;rounded=0;fontSize=8;fontColor=#B3B3B3;fontStyle=2;labelBackgroundColor=#ffffff;" parent="1" vertex="1">
          <mxGeometry x="851.5" y="-2634" width="152" height="16" as="geometry" />
        </mxCell>
        <mxCell id="xBJP_5Ue3mvzY2de2lxV-11" value="银联聚合反扫核身流程" style="text;html=1;strokeColor=none;fillColor=none;align=left;verticalAlign=middle;whiteSpace=wrap;rounded=0;shadow=0;" parent="1" vertex="1">
          <mxGeometry x="781" y="-3190" width="200" height="20" as="geometry" />
        </mxCell>
        <mxCell id="0yXCsYPJa96d_ALAP4yA-1" value="返回三方用户信息" style="edgeStyle=orthogonalEdgeStyle;rounded=0;orthogonalLoop=1;jettySize=auto;html=1;fontSize=8;fontColor=#000000;dashed=1;" parent="1" edge="1">
          <mxGeometry x="0.0131" relative="1" as="geometry">
            <mxPoint x="1028.25" y="-2803" as="sourcePoint" />
            <mxPoint x="837.75" y="-2803" as="targetPoint" />
            <Array as="points">
              <mxPoint x="1001.75" y="-2803" />
              <mxPoint x="1001.75" y="-2803" />
            </Array>
            <mxPoint as="offset" />
          </mxGeometry>
        </mxCell>
        <mxCell id="0yXCsYPJa96d_ALAP4yA-2" value="一卡通号（学工号）" style="text;html=1;strokeColor=none;fillColor=none;align=center;verticalAlign=middle;rounded=0;fontSize=8;fontColor=#B3B3B3;fontStyle=2;labelBackgroundColor=#ffffff;" parent="1" vertex="1">
          <mxGeometry x="852.25" y="-2794" width="152" height="16" as="geometry" />
        </mxCell>
        <mxCell id="pcRD8LiX77kpORbWio1C-1" value="&lt;p class=&quot;MsoNormal&quot;&gt;&lt;br&gt;&lt;/p&gt;" style="rounded=0;whiteSpace=wrap;html=1;" vertex="1" parent="1">
          <mxGeometry x="732" y="-4138" width="181" height="383" as="geometry" />
        </mxCell>
        <mxCell id="pcRD8LiX77kpORbWio1C-2" value="反扫消费+核身" style="rounded=0;whiteSpace=wrap;html=1;" vertex="1" parent="1">
          <mxGeometry x="752" y="-4111" width="137" height="30" as="geometry" />
        </mxCell>
        <mxCell id="pcRD8LiX77kpORbWio1C-3" value="产品需求池" style="text;html=1;strokeColor=none;fillColor=none;align=center;verticalAlign=middle;whiteSpace=wrap;rounded=0;" vertex="1" parent="1">
          <mxGeometry x="781" y="-4167" width="77.5" height="20" as="geometry" />
        </mxCell>
        <mxCell id="pcRD8LiX77kpORbWio1C-4" value="&lt;font style=&quot;font-size: 12px&quot;&gt;正扫银联静态码支付&lt;/font&gt;" style="rounded=0;whiteSpace=wrap;html=1;" vertex="1" parent="1">
          <mxGeometry x="752" y="-4052" width="137" height="30" as="geometry" />
        </mxCell>
        <mxCell id="pcRD8LiX77kpORbWio1C-5" value="&lt;font style=&quot;font-size: 12px&quot;&gt;微信小程序&lt;/font&gt;" style="rounded=0;whiteSpace=wrap;html=1;" vertex="1" parent="1">
          <mxGeometry x="752" y="-3993" width="137" height="30" as="geometry" />
        </mxCell>
        <mxCell id="pcRD8LiX77kpORbWio1C-6" value="&lt;font style=&quot;font-size: 12px&quot;&gt;云闪付小程序&lt;/font&gt;" style="rounded=0;whiteSpace=wrap;html=1;" vertex="1" parent="1">
          <mxGeometry x="752" y="-3932" width="137" height="30" as="geometry" />
        </mxCell>
        <mxCell id="pcRD8LiX77kpORbWio1C-7" value="&lt;font style=&quot;font-size: 12px&quot;&gt;捐款应用对接&lt;/font&gt;" style="rounded=0;whiteSpace=wrap;html=1;" vertex="1" parent="1">
          <mxGeometry x="752" y="-3870" width="137" height="30" as="geometry" />
        </mxCell>
        <mxCell id="pcRD8LiX77kpORbWio1C-8" value="&lt;font style=&quot;font-size: 12px&quot;&gt;常工电费&lt;/font&gt;" style="rounded=0;whiteSpace=wrap;html=1;" vertex="1" parent="1">
          <mxGeometry x="752" y="-3807" width="137" height="30" as="geometry" />
        </mxCell>
        <mxCell id="pcRD8LiX77kpORbWio1C-10" value="消费功能" style="rounded=0;whiteSpace=wrap;html=1;" vertex="1" parent="1">
          <mxGeometry x="1010.34" y="-3971" width="137" height="30" as="geometry" />
        </mxCell>
        <mxCell id="pcRD8LiX77kpORbWio1C-11" value="银联码核身&lt;br&gt;微信码核身&lt;br&gt;支付宝码核身" style="rounded=0;whiteSpace=wrap;html=1;" vertex="1" parent="1">
          <mxGeometry x="1016" y="-4115" width="137" height="50" as="geometry" />
        </mxCell>
        <mxCell id="pcRD8LiX77kpORbWio1C-12" value="缴费功能" style="rounded=0;whiteSpace=wrap;html=1;" vertex="1" parent="1">
          <mxGeometry x="1010.34" y="-3900" width="137" height="30" as="geometry" />
        </mxCell>
        <mxCell id="pcRD8LiX77kpORbWio1C-13" style="edgeStyle=orthogonalEdgeStyle;rounded=0;orthogonalLoop=1;jettySize=auto;html=1;exitX=0.5;exitY=1;exitDx=0;exitDy=0;" edge="1" parent="1" source="pcRD8LiX77kpORbWio1C-7" target="pcRD8LiX77kpORbWio1C-7">
          <mxGeometry relative="1" as="geometry" />
        </mxCell>
        <mxCell id="pcRD8LiX77kpORbWio1C-14" value="支付功能" style="rounded=0;whiteSpace=wrap;html=1;" vertex="1" parent="1">
          <mxGeometry x="1010.34" y="-3936" width="137" height="30" as="geometry" />
        </mxCell>
        <mxCell id="pcRD8LiX77kpORbWio1C-17" value="需求的功能" style="text;html=1;strokeColor=none;fillColor=none;align=center;verticalAlign=middle;whiteSpace=wrap;rounded=0;" vertex="1" parent="1">
          <mxGeometry x="1172" y="-4179" width="77.5" height="20" as="geometry" />
        </mxCell>
        <mxCell id="pcRD8LiX77kpORbWio1C-22" value="银联码消费&lt;br&gt;微信码消费&lt;br&gt;支付宝码消费" style="rounded=0;whiteSpace=wrap;html=1;" vertex="1" parent="1">
          <mxGeometry x="1016" y="-4058" width="137" height="50" as="geometry" />
        </mxCell>
      </root>
    </mxGraphModel>
  </diagram>
  <diagram id="PHX2chB7OjWR7kagi_BC" name="第 3 页">
    <mxGraphModel dx="1279" dy="677" grid="0" gridSize="10" guides="1" tooltips="1" connect="1" arrows="1" fold="1" page="0" pageScale="1" pageWidth="827" pageHeight="1169" math="0" shadow="0">
      <root>
        <mxCell id="y832zNPTSYnQc_k3G_79-0" />
        <mxCell id="y832zNPTSYnQc_k3G_79-1" parent="y832zNPTSYnQc_k3G_79-0" />
        <mxCell id="y832zNPTSYnQc_k3G_79-2" value="" style="endArrow=none;html=1;strokeWidth=2;sketch=1;shadow=0;" edge="1" parent="y832zNPTSYnQc_k3G_79-1">
          <mxGeometry width="50" height="50" relative="1" as="geometry">
            <mxPoint x="386" y="373" as="sourcePoint" />
            <mxPoint x="900" y="1000" as="targetPoint" />
          </mxGeometry>
        </mxCell>
      </root>
    </mxGraphModel>
  </diagram>
</mxfile>
